<?xml version="1.0" standalone="no"?>
<!DOCTYPE svg PUBLIC "-//W3C//DTD SVG 20010904//EN"
 "http://www.w3.org/TR/2001/REC-SVG-20010904/DTD/svg10.dtd">
<svg version="1.0" xmlns="http://www.w3.org/2000/svg"
 width="500.000000pt" height="500.000000pt" viewBox="0 0 500.000000 500.000000"
 preserveAspectRatio="xMidYMid meet">
<metadata>
Created by potrace 1.11, written by Peter Selinger 2001-2013
</metadata>
<g transform="translate(0.000000,500.000000) scale(0.100000,-0.100000)"
fill="#000000" stroke="none">
<path d="M2215 4938 c-441 -49 -896 -237 -1249 -515 -102 -81 -296 -273 -381
-378 -295 -366 -484 -820 -534 -1287 -14 -125 -14 -401 0 -526 49 -455 233
-907 516 -1266 81 -102 273 -296 378 -381 366 -295 820 -484 1287 -534 125
-14 401 -14 526 0 455 49 907 233 1266 516 102 81 296 273 381 378 295 366
484 820 534 1287 14 125 14 401 0 526 -50 467 -239 921 -534 1287 -85 105
-279 297 -381 378 -359 283 -811 467 -1266 516 -114 13 -429 12 -543 -1z m425
-868 l125 -250 -128 -128 -127 -127 -127 127 -127 127 124 250 c69 138 127
250 130 251 3 0 61 -113 130 -250z m-120 -693 c0 -7 16 -65 36 -128 54 -172
93 -300 104 -339 17 -59 50 -171 82 -270 16 -52 32 -102 33 -110 2 -8 12 -42
23 -75 11 -33 29 -94 41 -135 12 -41 26 -86 31 -100 4 -14 18 -59 30 -100 12
-41 31 -102 41 -134 10 -33 19 -65 19 -73 0 -33 32 -3 135 126 28 35 68 85 90
111 82 96 121 145 151 187 l31 43 113 -228 c62 -125 114 -229 116 -231 6 -7
36 22 123 123 175 200 198 227 275 318 43 51 88 102 100 113 11 11 50 55 84
97 35 42 67 78 71 80 3 2 38 41 77 88 39 47 79 91 88 99 16 13 16 12 7 -10 -5
-13 -24 -71 -41 -129 -17 -58 -35 -116 -40 -130 -5 -14 -23 -72 -41 -130 -17
-58 -46 -150 -64 -205 -18 -55 -42 -134 -55 -175 -13 -41 -31 -100 -40 -130
-10 -30 -32 -102 -50 -160 -18 -58 -36 -116 -41 -130 -5 -14 -11 -34 -14 -45
-2 -11 -13 -45 -23 -75 -11 -30 -30 -89 -42 -130 -12 -41 -35 -115 -50 -165
-16 -49 -31 -101 -35 -113 -6 -19 -35 32 -156 275 -82 164 -152 299 -156 300
-5 1 -39 -35 -78 -80 -38 -44 -95 -108 -125 -142 -126 -142 -231 -262 -257
-297 -29 -39 -43 -47 -43 -25 0 8 -8 40 -19 73 -38 121 -62 204 -62 209 1 3
-5 21 -13 40 -9 20 -16 39 -16 43 -3 23 -32 112 -39 116 -4 3 -41 -36 -82 -86
-40 -50 -79 -96 -84 -102 -6 -6 -26 -31 -45 -56 -19 -25 -42 -54 -52 -65 -9
-11 -44 -54 -78 -95 -34 -41 -65 -76 -69 -78 -4 -1 -30 25 -57 59 -65 82 -97
122 -169 209 -33 40 -71 87 -85 104 -56 72 -100 119 -106 114 -3 -4 -10 -24
-15 -45 -13 -49 -22 -82 -49 -168 -12 -38 -34 -114 -50 -169 -16 -54 -32 -101
-35 -105 -4 -3 -23 12 -42 34 -20 22 -124 133 -231 247 -107 114 -201 216
-209 227 -8 12 -19 21 -24 21 -5 0 -38 -57 -73 -127 -34 -71 -97 -198 -140
-283 l-78 -155 -18 45 c-9 25 -20 54 -25 65 -4 11 -9 25 -10 30 -2 6 -13 35
-25 65 -34 83 -37 92 -50 130 -7 19 -16 45 -21 58 -5 12 -13 32 -18 45 -5 12
-14 38 -21 57 -7 19 -16 44 -20 55 -27 68 -52 135 -51 139 0 3 -9 27 -20 53
-22 52 -61 152 -115 303 -19 52 -54 147 -79 210 -24 63 -74 196 -110 295 -37
99 -69 185 -72 190 -9 17 181 -179 402 -415 116 -123 253 -269 305 -325 52
-55 119 -126 149 -158 29 -32 55 -56 58 -54 2 3 56 108 119 234 64 125 119
231 123 236 6 6 111 -113 191 -218 90 -118 211 -255 215 -243 2 7 15 51 29 98
14 47 46 153 72 235 25 83 50 164 54 180 5 17 18 60 29 98 12 37 30 97 42 135
11 37 24 81 29 97 4 17 12 41 18 55 5 14 10 29 10 33 0 4 4 20 10 35 10 28 15
46 53 172 12 41 29 100 39 130 9 30 27 92 41 137 22 75 39 105 39 70z m-2090
-222 c42 -22 60 -53 60 -106 0 -106 -122 -161 -203 -91 -9 8 -22 33 -29 54
-32 108 72 195 172 143z m4214 -18 c56 -53 60 -107 11 -166 -52 -61 -126 -60
-185 4 -20 21 -25 37 -25 77 0 44 4 53 37 84 31 28 45 34 82 34 37 0 51 -6 80
-33z m-1169 -542 c50 -49 15 -135 -55 -135 -41 0 -80 39 -80 80 0 19 9 40 25
55 15 16 36 25 55 25 19 0 40 -9 55 -25z"/>
<path d="M2477 2887 c-29 -93 -38 -124 -55 -187 -6 -19 -35 -116 -66 -215 -31
-99 -64 -205 -73 -235 -33 -113 -55 -186 -63 -210 -4 -14 -18 -59 -30 -100
-11 -41 -28 -94 -36 -118 -18 -48 -25 -34 81 -162 33 -40 74 -90 90 -111 17
-21 57 -70 90 -110 33 -39 67 -81 76 -92 16 -19 16 -19 42 7 14 14 38 43 53
63 16 21 38 49 50 63 13 14 47 54 76 90 29 36 71 87 93 114 85 103 81 83 46
193 -17 54 -36 116 -42 138 -6 22 -16 52 -21 67 -6 15 -9 28 -8 30 1 2 -5 21
-13 43 -9 22 -29 85 -46 140 -16 55 -44 147 -61 205 -17 58 -41 137 -52 175
-11 39 -25 82 -30 97 -6 15 -10 31 -10 35 0 4 -6 24 -13 43 -7 19 -19 56 -26
83 -7 26 -16 47 -19 47 -3 0 -18 -42 -33 -93z"/>
<path d="M820 2323 c0 -7 4 -22 9 -35 24 -59 108 -282 176 -468 41 -113 79
-214 84 -225 21 -47 51 -129 51 -139 0 -6 7 -19 15 -30 13 -17 21 -4 103 161
l88 180 -94 104 c-52 57 -147 158 -211 224 -64 66 -140 147 -169 180 -28 33
-52 55 -52 48z"/>
<path d="M4089 2287 c-20 -23 -65 -75 -100 -115 -35 -41 -91 -105 -124 -142
-33 -38 -93 -107 -132 -153 l-73 -84 90 -181 c49 -99 93 -183 98 -186 7 -4 24
43 93 269 5 17 20 64 33 105 70 219 139 439 146 465 4 17 11 38 15 48 12 29
-8 18 -46 -26z"/>
<path d="M1581 1971 l-90 -181 57 -58 c31 -32 120 -127 197 -211 l140 -153 13
34 c8 18 28 76 44 128 67 213 69 225 31 265 -31 33 -84 97 -153 185 -90 114
-132 165 -141 168 -5 2 -49 -78 -98 -177z"/>
<path d="M3309 2112 c-19 -22 -56 -68 -84 -102 -27 -35 -87 -107 -132 -161
-72 -85 -82 -101 -74 -121 5 -13 19 -57 31 -98 12 -41 30 -100 40 -130 9 -31
21 -70 24 -88 4 -17 11 -32 15 -32 3 0 45 44 91 97 47 54 105 120 130 148 93
102 160 183 160 192 0 8 -155 321 -163 329 -2 3 -19 -13 -38 -34z"/>
</g>
</svg>
